# xmcd
#
# Track frame offsets:
#	150
#	17056
#	31296
#	47137
#	62098
#	79250
#	94404
#	109426
#	122416
#	135784
#	153734
#	169342
#	187029
#	201135
#	217190
#	234579
#	250161
#	264097
#	278684
#
# Disc length: 3913 seconds
#
# Revision: 1
# Processed by: cddbd v1.5.2PL0 Copyright (c) Steve Scherf et al.
# Submitted via: audiograbber 1.83.01
#
DISCID=100f4713
DTITLE=Various Artist - Hott Country 206
DYEAR=2013
DGENRE=Country
TTITLE0=Blake Shelton - Boys Round Here
TTITLE1=Autumn Hill - Can't Keep Waiting
TTITLE2=Terri Clark Feat Dean Brody - I'm Movin On
TTITLE3=Billy Currington - Hey Girl
TTITLE4=Belle Starr - New Girl Now
TTITLE5=Pistol Annies - Hush Hush
TTITLE6=High Valley - Trying To Believe
TTITLE7=Hayden Panittiere - Hypnotizing
TTITLE8=Kate Mission - Hand Out The Window
TTITLE9=Carrie Underwood - See You Again
TTITLE10=Deric Ruttan - Where The Train Don't Stop
TTITLE11=Hunter Hayes - I Want Crazy
TTITLE12=Friday Night Satellites - Shoestring
TTITLE13=Tyler Farr - Redneck Crazy
TTITLE14=Luke Bryan - Suntan City
TTITLE15=Jon Pardi - Up All Night
TTITLE16=|Colt Ford Feat Jonathan Singleton - Lucky
TTITLE17=Robyn And Ryleigh - Just Another Sundown
TTITLE18=Drake White - The Simple Life
EXTD=April 2013
EXTT0=
EXTT1=
EXTT2=
EXTT3=
EXTT4=
EXTT5=
EXTT6=
EXTT7=
EXTT8=
EXTT9=
EXTT10=
EXTT11=
EXTT12=
EXTT13=
EXTT14=
EXTT15=
EXTT16=
EXTT17=
EXTT18=
PLAYORDER=
